HIERARCHY
ROOT hip
{
  OFFSET 0 0 0
  CHANNELS 6 Xposition Yposition Zposition Zrotation Yrotation Xrotation
  JOINT abdomen
  {
    OFFSET 0 20.6881 -0.73152
    CHANNELS 3 Zrotation Xrotation Yrotation
    JOINT chest
    {
      OFFSET 0 11.7043 -0.48768
      CHANNELS 3 Zrotation Xrotation Yrotation
      JOINT neck
      {
        OFFSET 0 22.1894 -2.19456
        CHANNELS 3 Zrotation Xrotation Yrotation
        JOINT head
        {
          OFFSET -0.24384 7.07133 1.2192
          CHANNELS 3 Zrotation Xrotation Yrotation
          JOINT leftEye
          {
            OFFSET 4.14528 8.04674 8.04672
            CHANNELS 3 Zrotation Xrotation Yrotation
            End Site
            {
              OFFSET 1 0 0
            }
          }
          JOINT rightEye
          {
            OFFSET -3.6576 8.04674 8.04672
            CHANNELS 3 Zrotation Xrotation Yrotation
            End Site
            {
              OFFSET 1 0 0
            }
          }
        }
      }
      JOINT rCollar
      {
        OFFSET -2.68224 19.2634 -4.8768
        CHANNELS 3 Zrotation Xrotation Yrotation
        JOINT rShldr
        {
          OFFSET -8.77824 -1.95073 1.46304
          CHANNELS 3 Zrotation Xrotation Yrotation
          JOINT rForeArm
          {
            OFFSET -28.1742 -1.7115 0.48768
            CHANNELS 3 Zrotation Xrotation Yrotation
            JOINT rHand
            {
              OFFSET -22.5879 0.773209 7.07136
              CHANNELS 3 Zrotation Xrotation Yrotation
              JOINT rThumb1
              {
                OFFSET -1.2192 -0.487915 3.41376
                CHANNELS 3 Zrotation Xrotation Yrotation
                JOINT rThumb2
                {
                  OFFSET -3.37035 -0.52449 3.41376
                  CHANNELS 3 Zrotation Xrotation Yrotation
                  End Site
                  {
                    OFFSET -1.78271 -1.18214 1.43049
                  }
                }
              }
              JOINT rIndex1
              {
                OFFSET -7.75947 0.938293 5.60832
                CHANNELS 3 Zrotation Xrotation Yrotation
                JOINT rIndex2
                {
                  OFFSET -2.54057 -0.884171 1.56538
                  CHANNELS 3 Zrotation Xrotation Yrotation
                  End Site
                  {
                    OFFSET -1.62519 -0.234802 1.16502
                  }
                }
              }
              JOINT rMid1
              {
                OFFSET -8.24714 1.18213 3.41376
                CHANNELS 3 Zrotation Xrotation Yrotation
                JOINT rMid2
                {
                  OFFSET -3.10165 -0.590103 1.0647
                  CHANNELS 3 Zrotation Xrotation Yrotation
                  End Site
                  {
                    OFFSET -2.48547 -0.328903 0.83742
                  }
                }
              }
              JOINT rRing1
              {
                OFFSET -8.82822 0.546677 1.51678
                CHANNELS 3 Zrotation Xrotation Yrotation
                JOINT rRing2
                {
                  OFFSET -2.60934 -0.819778 -0.0198488
                  CHANNELS 3 Zrotation Xrotation Yrotation
                  End Site
                  {
                    OFFSET -2.33842 -0.294052 0.168128
                  }
                }
              }
              JOINT rPinky1
              {
                OFFSET -8.27202 -0.0477905 -0.4584
                CHANNELS 3 Zrotation Xrotation Yrotation
                JOINT rPinky2
                {
                  OFFSET -1.82734 -0.647385 -0.700984
                  CHANNELS 3 Zrotation Xrotation Yrotation
                  End Site
                  {
                    OFFSET -1.69225 -0.51767 -0.607171
                  }
                }
              }
            }
          }
        }
      }
      JOINT lCollar
      {
        OFFSET 2.68224 19.2634 -4.8768
        CHANNELS 3 Zrotation Xrotation Yrotation
        JOINT lShldr
        {
          OFFSET 8.77824 -1.95073 1.46304
          CHANNELS 3 Zrotation Xrotation Yrotation
          JOINT lForeArm
          {
            OFFSET 28.1742 -1.7115 0.48768
            CHANNELS 3 Zrotation Xrotation Yrotation
            JOINT lHand
            {
              OFFSET 22.5879 0.773209 7.07136
              CHANNELS 3 Zrotation Xrotation Yrotation
              JOINT lThumb1
              {
                OFFSET 1.2192 -0.487915 3.41376
                CHANNELS 3 Zrotation Xrotation Yrotation
                JOINT lThumb2
                {
                  OFFSET 3.37035 -0.52449 3.41376
                  CHANNELS 3 Zrotation Xrotation Yrotation
                  End Site
                  {
                    OFFSET 1.78271 -1.18214 1.43049
                  }
                }
              }
              JOINT lIndex1
              {
                OFFSET 7.75947 0.938293 5.60832
                CHANNELS 3 Zrotation Xrotation Yrotation
                JOINT lIndex2
                {
                  OFFSET 2.54057 -0.884171 1.56538
                  CHANNELS 3 Zrotation Xrotation Yrotation
                  End Site
                  {
                    OFFSET 1.62519 -0.234802 1.16502
                  }
                }
              }
              JOINT lMid1
              {
                OFFSET 8.24714 1.18213 3.41376
                CHANNELS 3 Zrotation Xrotation Yrotation
                JOINT lMid2
                {
                  OFFSET 3.10165 -0.590103 1.0647
                  CHANNELS 3 Zrotation Xrotation Yrotation
                  End Site
                  {
                    OFFSET 2.48547 -0.328903 0.83742
                  }
                }
              }
              JOINT lRing1
              {
                OFFSET 8.82822 0.546677 1.51678
                CHANNELS 3 Zrotation Xrotation Yrotation
                JOINT lRing2
                {
                  OFFSET 2.60934 -0.819778 -0.0198488
                  CHANNELS 3 Zrotation Xrotation Yrotation
                  End Site
                  {
                    OFFSET 2.33842 -0.294052 0.168128
                  }
                }
              }
              JOINT lPinky1
              {
                OFFSET 8.27202 -0.0477905 -0.4584
                CHANNELS 3 Zrotation Xrotation Yrotation
                JOINT lPinky2
                {
                  OFFSET 1.82734 -0.647385 -0.700984
                  CHANNELS 3 Zrotation Xrotation Yrotation
                  End Site
                  {
                    OFFSET 1.69225 -0.51767 -0.607171
                  }
                }
              }
            }
          }
        }
      }
    }
  }
  JOINT rButtock
  {
    OFFSET -8.77824 4.35084 1.2192
    CHANNELS 3 Zrotation Xrotation Yrotation
    JOINT rThigh
    {
      OFFSET 0 -1.70687 -2.19456
      CHANNELS 3 Zrotation Xrotation Yrotation
      JOINT rShin
      {
        OFFSET 0 -36.8199 0.73152
        CHANNELS 3 Zrotation Xrotation Yrotation
        JOINT rFoot
        {
          OFFSET 0.73152 -45.1104 -5.12064
          CHANNELS 3 Zrotation Xrotation Yrotation
          End Site
          {
            OFFSET -1.1221 -3.69964 12.103
          }
        }
      }
    }
  }
  JOINT lButtock
  {
    OFFSET 8.77824 4.35084 1.2192
    CHANNELS 3 Zrotation Xrotation Yrotation
    JOINT lThigh
    {
      OFFSET 0 -1.70687 -2.19456
      CHANNELS 3 Zrotation Xrotation Yrotation
      JOINT lShin
      {
        OFFSET 0 -36.8199 0.73152
        CHANNELS 3 Zrotation Xrotation Yrotation
        JOINT lFoot
        {
          OFFSET -0.73152 -45.1104 -5.12064
          CHANNELS 3 Zrotation Xrotation Yrotation
          End Site
          {
            OFFSET 1.1221 -3.69964 12.103
          }
        }
      }
    }
  }
}
MOTION
Frames:	7
Frame Time:	0.00833333
138.183 58.3162 6.07715 163.076 85.7711 179.652 2.47476 22.0354 -0.392613 2.41656 0.216081 0.0950087 -6.41501 0.811341 -1.44695 3.72736 -28.885 0.0301204 -0.0 0.0 0.0 -0.0 0.0 0.0 2.65707e-14 6.64389e-13 -1.93815e-14 79.0754 21.7533 11.251 -7.79704 -2.90629 13.7301 -0.407005 17.841 2.59258 -9.0754e-09 -1.08606e-09 7.10715e-09 -1.55798e-08 -1.87988e-09 1.24119e-08 -9.0754e-09 -1.08605e-09 7.10714e-09 7.73091 5.47488 0.417314 -9.0754e-09 -1.08605e-09 7.10715e-09 2.90554 0.965183 0.102902 -9.07539e-09 -1.08605e-09 7.10715e-09 10.2786 0.731801 0.0259123 -9.07539e-09 -1.08605e-09 7.10716e-09 2.22167 -0.733487 -0.20892 2.67054e-14 6.64388e-13 -1.95803e-14 105.139 -17.6798 -152.873 8.08346 -3.05554 -14.2533 131.974 77.5024 -140.649 2.95338e-10 -3.06765e-09 -5.91242e-09 -2.62849e-11 -5.29714e-09 -1.01085e-08 2.95332e-10 -3.06765e-09 -5.91242e-09 -7.73091 5.47488 -0.417314 2.95338e-10 -3.06765e-09 -5.91243e-09 -2.90554 0.965183 -0.102902 2.95331e-10 -3.06765e-09 -5.91242e-09 -10.2786 0.731801 -0.0259123 2.95342e-10 -3.06765e-09 -5.91243e-09 -2.22167 -0.733487 0.20892 -2.03217e-16 0.0 -3.88251e-19 5.33059 -83.9639 0.978085 -16.1915 86.4159 16.6289 1.48419 -0.617943 16.9903 2.03217e-16 0.0 3.88251e-19 -11.3925 -84.8194 -10.4529 9.37792 84.049 -9.63711 1.25801 4.43804 10.6398
138.5 57.5217 6.04872 171.001 85.1878 182.252 2.79421 21.2773 -0.247165 2.26444 -0.474464 0.145469 -6.51708 0.319183 -1.47394 3.40395 -29.3032 0.0384583 -0.0 0.0 0.0 -0.0 0.0 0.0 4.04623e-14 1.03928e-12 -4.72005e-14 69.4299 27.1354 29.0861 -10.1139 -4.49603 17.5019 -0.716662 18.1762 2.88442 -7.48528e-09 -1.00001e-09 6.4018e-09 -1.28406e-08 -1.72253e-09 1.11586e-08 -7.48527e-09 -1e-09 6.40178e-09 7.73091 5.47488 0.417314 -7.48528e-09 -1e-09 6.4018e-09 2.90554 0.965183 0.102902 -7.48527e-09 -1e-09 6.40179e-09 10.2786 0.731801 0.0259123 -7.48527e-09 -1e-09 6.4018e-09 2.22167 -0.733487 -0.20892 4.05855e-14 1.03928e-12 -4.7388e-14 83.8506 11.7286 -140.862 10.2588 -4.54064 -17.8665 166.024 46.3737 -173.22 3.63114e-10 -2.62802e-09 -5.33526e-09 1.77659e-10 -4.54741e-09 -9.11499e-09 3.63108e-10 -2.62802e-09 -5.33526e-09 -7.73091 5.47488 -0.417314 3.63114e-10 -2.62802e-09 -5.33527e-09 -2.90554 0.965183 -0.102902 3.63108e-10 -2.62802e-09 -5.33527e-09 -10.2786 0.731801 -0.0259123 3.63117e-10 -2.62802e-09 -5.33528e-09 -2.22167 -0.733487 0.20892 -2.03217e-16 0.0 -3.88251e-19 4.72237 -81.3148 -0.328294 -34.7585 88.1872 35.1929 0.947414 1.2052 17.3121 2.03217e-16 0.0 3.88251e-19 -9.95523 -82.4074 -9.14379 14.488 85.9857 -14.7531 1.46984 3.59386 10.7844
138.414 56.8244 5.94816 175.487 84.6558 182.21 3.13049 20.3353 -0.0550292 2.09153 -1.67928 0.204287 -6.65355 -0.249923 -1.63639 2.99573 -30.8433 -0.136209 -0.0 0.0 0.0 -0.0 0.0 0.0 5.77997e-14 1.46001e-12 -8.42474e-14 64.2424 21.8853 45.4105 -12.9886 -6.59057 22.7554 -1.1884 26.6801 4.23095 -4.22519e-09 -6.9188e-10 4.57614e-09 -7.22915e-09 -1.19291e-09 7.94579e-09 -4.22517e-09 -6.91876e-10 4.57613e-09 7.73091 5.47488 0.417314 -4.22519e-09 -6.91876e-10 4.57614e-09 2.90554 0.965183 0.102902 -4.22518e-09 -6.91876e-10 4.57614e-09 10.2786 0.731801 0.0259123 -4.22518e-09 -6.91876e-10 4.57614e-09 2.22167 -0.733487 -0.20892 5.78719e-14 1.46001e-12 -8.44183e-14 28.6489 36.1353 -109.196 12.9285 -6.46279 -22.8224 171.246 -3.41821 179.948 3.95166e-10 -1.67809e-09 -3.86776e-09 4.1851e-10 -2.91752e-09 -6.59302e-09 3.9516e-10 -1.67809e-09 -3.86775e-09 -7.73091 5.47488 -0.417314 3.95166e-10 -1.67809e-09 -3.86776e-09 -2.90554 0.965183 -0.102902 3.95162e-10 -1.67809e-09 -3.86776e-09 -10.2786 0.731801 -0.0259123 3.95169e-10 -1.67808e-09 -3.86777e-09 -2.22167 -0.733487 0.20892 -2.03217e-16 0.0 -3.88251e-19 3.32319 -78.6666 -2.60255 -100.692 88.9176 101.132 0.397045 2.8789 16.9505 2.03217e-16 0.0 3.88251e-19 -8.9413 -79.9552 -8.2889 25.6843 87.613 -25.9571 1.58792 3.04908 10.5515
138.054 56.2352 5.90725 181.17 84.4281 184.277 3.37429 19.3801 0.187187 1.87133 -2.96527 0.273045 -6.77282 -0.741378 -1.87865 2.65685 -32.7899 -0.438164 -0.0 0.0 0.0 -0.0 0.0 0.0 7.03781e-14 1.7531e-12 -1.17785e-13 63.7653 14.3654 60.1026 -15.4437 -8.44966 27.9986 -2.05982 35.8918 5.92831 -7.30643e-10 -3.36906e-10 2.48657e-09 -1.21598e-09 -5.86497e-10 4.27667e-09 -7.30621e-10 -3.36903e-10 2.48655e-09 7.73091 5.47488 0.417314 -7.30643e-10 -3.36904e-10 2.48657e-09 2.90554 0.965183 0.102902 -7.30638e-10 -3.36904e-10 2.48656e-09 10.2786 0.731801 0.0259123 -7.30643e-10 -3.36904e-10 2.48656e-09 2.22167 -0.733487 -0.20892 7.03879e-14 1.75309e-12 -1.1794e-13 -35.3098 25.9433 -76.8746 15.3717 -8.33013 -27.9831 165.036 -53.7322 171.905 3.8774e-10 -6.34787e-10 -2.20383e-09 6.06499e-10 -1.12386e-09 -3.73617e-09 3.87734e-10 -6.34786e-10 -2.20383e-09 -7.73091 5.47488 -0.417314 3.8774e-10 -6.34788e-10 -2.20384e-09 -2.90554 0.965183 -0.102902 3.87738e-10 -6.34788e-10 -2.20384e-09 -10.2786 0.731801 -0.0259123 3.87744e-10 -6.34785e-10 -2.20384e-09 -2.22167 -0.733487 0.20892 -2.03217e-16 0.0 -3.88251e-19 1.65948 -75.5176 -5.07571 -136.374 88.4336 136.822 0.00612585 4.03852 16.1301 2.03217e-16 0.0 3.88251e-19 -6.90347 -77.0385 -6.43218 44.0424 88.485 -44.3241 1.59821 2.81746 9.95952
137.667 55.9493 5.98389 190.23 84.4447 190.348 3.41385 18.582 0.483807 1.57563 -3.89936 0.353188 -6.81868 -1.0007 -2.14493 2.55581 -34.4273 -0.804936 -0.0 0.0 0.0 -0.0 0.0 0.0 6.99921e-14 1.74503e-12 -1.35074e-13 61.6964 8.57315 74.5668 -16.9287 -9.57939 31.6586 -2.23668 38.4523 6.40757 1.56283e-09 -1.10318e-10 9.89464e-10 2.72832e-09 -1.9874e-10 1.65424e-09 1.56286e-09 -1.10316e-10 9.89448e-10 7.73091 5.47488 0.417314 1.56283e-09 -1.10317e-10 9.89461e-10 2.90554 0.965183 0.102902 1.56284e-09 -1.10317e-10 9.89459e-10 10.2786 0.731801 0.0259123 1.56283e-09 -1.10317e-10 9.89458e-10 2.22167 -0.733487 -0.20892 6.99569e-14 1.74503e-12 -1.35223e-13 -67.2225 9.47936 -76.1064 17.1596 -9.81079 -32.1608 85.597 -81.9841 93.6324 3.37083e-10 8.49335e-11 -1.03743e-09 6.51855e-10 1.17165e-10 -1.73799e-09 3.37077e-10 8.49355e-11 -1.03742e-09 -7.73091 5.47488 -0.417314 3.37083e-10 8.49338e-11 -1.03743e-09 -2.90554 0.965183 -0.102902 3.37081e-10 8.49338e-11 -1.03743e-09 -10.2786 0.731801 -0.0259123 3.37087e-10 8.49371e-11 -1.03744e-09 -2.22167 -0.733487 0.20892 -2.03217e-16 0.0 -3.88251e-19 0.0192312 -71.3765 -7.23401 -127.171 88.6508 127.627 -0.112534 4.30033 15.0718 2.03217e-16 0.0 3.88251e-19 -3.7235 -73.199 -3.4203 43.1136 88.46 -43.4048 1.4994 2.9148 9.02699
137.214 56.0861 5.96284 196.059 84.4745 194.267 3.15376 18.1703 0.907504 1.14213 -4.39927 0.459034 -6.75486 -0.936282 -2.4704 2.91529 -36.6511 -1.22996 -0.0 0.0 0.0 -0.0 0.0 0.0 4.74152e-14 1.22651e-12 -1.29102e-13 54.864 1.41402 88.2701 -17.3436 -9.86199 32.8276 -0.875341 30.8008 4.63837 2.19353e-09 -8.9314e-11 2.84398e-10 3.80874e-09 -1.61352e-10 4.35069e-10 2.19356e-09 -8.93135e-11 2.84382e-10 7.73091 5.47488 0.417314 2.19354e-09 -8.93151e-11 2.84394e-10 2.90554 0.965183 0.102902 2.19354e-09 -8.93156e-11 2.84392e-10 10.2786 0.731801 0.0259123 2.19353e-09 -8.93149e-11 2.84392e-10 2.22167 -0.733487 -0.20892 4.73554e-14 1.22651e-12 -1.29256e-13 -69.7813 1.61707 -87.3775 18.3612 -10.9857 -34.9806 25.0218 -73.4984 33.7745 2.22445e-10 3.4235e-10 -5.51578e-10 4.87287e-10 5.7083e-10 -9.15095e-10 2.22439e-10 3.42353e-10 -5.51576e-10 -7.73091 5.47488 -0.417314 2.22446e-10 3.42351e-10 -5.51581e-10 -2.90554 0.965183 -0.102902 2.22441e-10 3.42351e-10 -5.51581e-10 -10.2786 0.731801 -0.0259123 2.22449e-10 3.42354e-10 -5.51587e-10 -2.22167 -0.733487 0.20892 -2.03217e-16 0.0 -3.88251e-19 -1.83576 -66.3628 -9.49629 -53.7244 88.7046 54.183 0.126438 3.12693 14.4933 2.03217e-16 0.0 3.88251e-19 -0.200019 -68.6033 0.263734 25.854 87.6406 -26.1481 1.31416 3.18015 7.7527
137.224 57.3429 5.75775 198.077 84.9754 193.663 2.6727 17.9919 1.43311 0.603348 -4.68488 0.585114 -6.61314 -0.6475 -2.86805 3.54316 -39.4787 -1.772 -0.0 0.0 0.0 -0.0 0.0 0.0 9.36961e-15 3.44412e-13 -1.07869e-13 47.4116 -10.4914 98.1612 -17.1747 -9.6912 32.4689 0.290714 17.3162 2.3076 1.95338e-09 -1.70281e-10 -7.57692e-11 3.38831e-09 -2.99115e-10 -1.67713e-10 1.9534e-09 -1.70283e-10 -7.57859e-11 7.73091 5.47488 0.417314 1.95338e-09 -1.70284e-10 -7.57749e-11 2.90554 0.965183 0.102902 1.95338e-09 -1.70285e-10 -7.57749e-11 10.2786 0.731801 0.0259123 1.95337e-09 -1.70283e-10 -7.57735e-11 2.22167 -0.733487 -0.20892 9.29191e-15 3.44412e-13 -1.08033e-13 -55.6618 -8.14625 -98.2007 19.2846 -12.0577 -37.0783 21.1735 -71.7156 29.6024 5.24105e-11 3.69013e-10 -3.76859e-10 1.75122e-10 6.33773e-10 -6.31479e-10 5.24055e-11 3.69017e-10 -3.76857e-10 -7.73091 5.47488 -0.417314 5.24123e-11 3.69015e-10 -3.7686e-10 -2.90554 0.965183 -0.102902 5.24037e-11 3.69015e-10 -3.76861e-10 -10.2786 0.731801 -0.0259123 5.24144e-11 3.69017e-10 -3.76867e-10 -2.22167 -0.733487 0.20892 -2.03217e-16 0.0 -3.88251e-19 -3.52928 -60.6424 -11.6505 -16.3511 86.4698 16.809 0.601889 0.85679 14.0716 2.03217e-16 0.0 3.88251e-19 2.74979 -63.328 3.69624 14.0561 85.936 -14.3485 1.06094 3.6617 6.12747
